#!OML:ASF F:\VICON\USERDATA\INSTALL\rory3\rory3.ASF
:FULLY-SPECIFIED
:DEGREES
47
root -0.9784761358400623 17.478728104333314 13.212620928149127 4.144683291592879 2.702827545605788 6.955018275773028
lfemur 8.286846054381531 -2.4645921737414502 -33.52016881273308
ltibia 27.053835893707507
lfoot -36.62553513772889 5.310604126262204
ltoes 11.464636577182922
rfemur -41.94507836215407 -13.775742893891385 12.311219030900975
rtibia 178.9391738933491
rfoot 18.580540591698696 -5.873258257143758
rtoes 37.3672345273816
lowerback 1.0 1.2487190968455997 -6.352697213322987
upperback 0.5808368744813932 0.8255319121826223 -2.0036435259946677
thorax -8.51767090705361 0.030561024761608713 1.596728159139456
lowerneck -22.2019760695511 -5.2358953567685536 -1.0577314642584117
upperneck 9.763106261225762 -8.065643079378823 6.50445058928006
head 7.314623960585369 -3.214854932243041 1.1212007451060229
lclavicle 9.640180370265278e-15 -2.4929299508613743e-14
lhumerus -36.263927567735614 -15.426269659904026 94.26239296379615
lradius 128.9722003883185
lwrist 31.43558357453631
lhand -26.648115266184586 -4.455046225735494
lfingers nan
lthumb 0.6340514493000775 27.185102454883005
rclavicle 1.2477008196110174e-14 -2.24988670415991e-14
rhumerus -59.38709428122443 5.669333903371374 -98.98961642219402
rradius 64.14960916379553
rwrist -14.94657204786435
rhand -22.63335847995665 1.0
rfingers nan
rthumb 4.210284804165948 9.389777275394222
48
root -0.9949749161729041 17.475344364887484 13.640135637215632 4.364260482204136 2.3973473353648496 6.488008303764796
lfemur 8.851798060343192 -2.526119692392599 -33.0924439491823
ltibia 27.034377593328095
lfoot -36.76163128502596 6.419317018356262
ltoes 6.819255463430814
rfemur -43.34620050561439 -13.457058457137835 13.129682211350072
rtibia 179.10630734822405
rfoot 18.007729118335778 -4.899165367677552
rtoes 29.641003743783084
lowerback 1.0 1.3559337946942638 -6.448981018427677
upperback 0.5294082952733123 0.9634773462614099 -1.8452577118550977
thorax -8.292072035521258 0.04629955970684663 1.762877589187161
lowerneck -22.817589303038382 -5.147756686189224 -1.1164587649885607
upperneck 9.870769307138493 -7.920980376262211 6.369825953632256
head 7.395815551735701 -3.1755267690485516 1.097799023613388
lclavicle 2.7093005849148006e-14 -2.4862132124610525e-14
lhumerus -34.95816884422391 -15.699661654133813 93.92995152419178
lradius 129.09231422287024
lwrist 30.280488788070578
lhand -26.105622897260155 -3.994244044822807
lfingers nan
lthumb 1.2015326492541916 27.759587362715045
rclavicle 2.945974845479793e-14 -2.2664402099441857e-14
rhumerus -60.40098681416366 5.558596546696816 -98.76853644437534
rradius 64.63189191809546
rwrist -11.052666488862112
rhand -23.67675792873575 1.0
rfingers nan
rthumb 3.2296402283968595 8.035480824760796
49
root -1.0110375390998692 17.47401199310504 13.855260756188427 4.537472074897299 1.7181290476934215 5.780590691429772
lfemur 9.4519202835842 -2.2787267101761532 -32.37771866966652
ltibia 26.899513435933777
lfoot -36.51795250220669 6.805227527107887
ltoes 7.623459472045603
rfemur -45.146278272058076 -12.531952219768995 14.213677702312523
rtibia 178.79623132540098
rfoot 17.183000178626067 -4.663926781815563
rtoes 34.57025054509753
lowerback 1.0 1.5306164881673185 -6.399321106602781
upperback 0.34717095075735566 1.2033471332912682 -1.6733289354270329
thorax -8.25653767328183 0.1324663454428825 1.7846834584458051
lowerneck -23.069244410126963 -4.9406688430643735 -1.1822088671374416
upperneck 10.083193331745305 -7.665198023456516 6.282448774903618
head 7.481529150389032 -3.075180296625375 1.0956800153471162
lclavicle -1.5946450058142245e-14 1.3638560142972884e-14
lhumerus -34.049532730931865 -15.659919492302215 93.58384704074487
lradius 129.2580699508415
lwrist 29.29735932404431
lhand -26.707620007205925 -5.6120521013917255
lfingers nan
lthumb 0.6637925132494975 26.224341647883172
rclavicle -1.3433439136558164e-14 1.6005427580398014e-14
rhumerus -61.43817260255314 5.729553212502311 -98.62803895880774
rradius 65.69488333357214
rwrist -9.51638842863177
rhand -24.447983059897677 1.0
rfingers nan
rthumb 2.482824321141524 8.77692661821513
50
root -1.0266009590193517 17.497483957186436 14.2598495796372 4.74255370935429 0.540973092573381 4.863697634636896
lfemur 9.91479090761457 -1.3932609882981621 -31.563634969729655
ltibia 26.300757006954846
lfoot -35.571945372036694 7.134592255189057
ltoes 7.975465514477694
rfemur -47.185250348261384 -10.73069072803917 15.434110230600679
rtibia 177.77399473426203
rfoot 16.96218053023148 -4.742993902316425
rtoes 34.09107440529021
lowerback 1.0 1.8129899312936415 -6.327778145292556
upperback -0.09508596368587174 1.5948658907713844 -1.50985247139009
thorax -8.667311693008172 0.29211812420515954 1.6954414040716006
lowerneck -22.214536604740847 -4.64859513270543 -1.2556262430470013
upperneck 10.08331436277589 -7.241727875052615 6.171419213071783
head 7.361121747625623 -2.918971235876697 1.1078012303902276
lclavicle -3.952012806883037e-14 1.6910017035030347e-14
lhumerus -33.728544930688514 -15.23468885011004 93.24199929758412
lradius 130.06753833103883
lwrist 28.588751096614747
lhand -27.241762048862853 -7.670156749528452
lfingers nan
lthumb 0.1985702464934347 24.229981184663608
rclavicle -3.638646594081818e-14 1.9471057457453018e-14
rhumerus -62.879295939435266 6.172694733190986 -98.62873044831157
rradius 67.57062799918616
rwrist -10.178470477774328
rhand -24.513230691833737 1.0
rfingers nan
rthumb 2.4192066630388007 8.905247417636478
51
root -1.0311245090669123 17.54399283025779 14.359065649462025 4.797787530085705 -0.5799157054716109 4.220638372923336
lfemur 10.803407633099624 -0.5735068089293542 -31.00440027545047
ltibia 25.43039030251765
lfoot -34.283728223155556 6.874973146984752
ltoes 7.839172099059439
rfemur -48.73083301941185 -9.165786213031518 16.205807892156976
rtibia 175.85344790074333
rfoot 16.92104568280514 -4.314252375724696
rtoes 18.15854438017556
lowerback 1.0 2.0019780250559043 -6.529292884903863
upperback -0.24410361193976243 1.8974793169050268 -1.3378442429501503
thorax -8.84739117054225 0.40661005706795333 1.833818962066855
lowerneck -22.323694711121945 -4.31115141535689 -1.2902187815758075
upperneck 10.287150473519507 -6.7232006632179715 5.9620543782508175
head 7.375989360894608 -2.716900355559586 1.093285521625629
lclavicle 3.0770718483619484e-14 2.1718650961219495e-14
lhumerus -33.33240632640934 -14.64704183601594 92.8413754082969
lradius 131.2774207104643
lwrist 28.37786474855396
lhand -28.28020047042558 -9.066028040660695
lfingers nan
lthumb -0.7535513868934496 22.933252680725595
rclavicle 3.4070518069140416e-14 2.4192948058096565e-14
rhumerus -63.7731756919206 6.908753111282769 -98.45752622344341
rradius 69.40665900633951
rwrist -12.183450870694612
rhand -23.97577288271688 1.0
rfingers nan
rthumb 2.955921265839855 9.256164711836313
52
root -0.9257119476968231 17.60697137028738 14.90645168372868 4.361611692832719 3.4767978079200175 4.584000190630935
lfemur 9.281358681664248 -4.289250804605223 -29.51129121966046
ltibia 24.250761106885392
lfoot -32.167270028042445 5.0755976754035235
ltoes 6.01713968772
rfemur -43.859052944575105 -13.473395078930208 16.3313678705081
rtibia 172.41759093206826
rfoot 13.941759716211667 -2.69908748782324
rtoes 19.27626507608033
lowerback 1.0 0.36758855624246833 -3.9666323993364534
upperback 0.45032865754013657 0.01935987552715024 -0.9321424897556435
thorax -8.082089017528434 -0.49816104589865084 1.8437185318580267
lowerneck -23.88340392950896 -3.9615557442967795 -1.387288825010112
upperneck 10.915575546188183 -6.182484856112699 5.641952543328127
head 7.708492147990994 -2.494788582373666 1.0368382275367005
lclavicle -8.932913963917979e-15 2.6924475839168575e-15
lhumerus -32.56319629476869 -14.14791450834081 92.49730266993387
lradius 132.64304529487842
lwrist 28.86531032683382
lhand -28.64809468852934 -8.964507298175418
lfingers nan
lthumb -1.0729532078071449 23.09528431030503
rclavicle -5.2869393128645796e-15 5.383566875096299e-15
rhumerus -64.25621073007193 7.734792344483904 -98.01948164245783
rradius 71.08759253769881
rwrist -14.503108530104967
rhand -23.388393144859258 1.0
rfingers nan
rthumb 3.515212522259742 10.225089161398088
